<svg t="1665976083535" class="icon" viewBox="0 0 1024 1024" version="1.1" xmlns="http://www.w3.org/2000/svg" p-id="2493" width="200" height="200"><path d="M512 998.628571c-152.571429 0-282.4-30.171429-375.542857-87.2C49.714286 858.285714 0 784.457143 0 708.8c0-29.142857 9.714286-70.514286 52.114286-112.114286-5.257143-23.314286-7.885714-47.885714-7.885715-73.6 0-57.257143 8.228571-115.771429 23.885715-169.257143 17.714286-60.571429 44.457143-114.628571 79.428571-160.685714 39.657143-52 89.028571-92.8 146.857143-121.142857C357.828571 41.028571 430.971429 25.371429 512 25.371429S666.171429 41.028571 729.6 72c57.828571 28.228571 107.314286 69.028571 146.857143 121.257143 34.971429 46.057143 61.714286 100.114286 79.428571 160.685714 15.657143 53.371429 23.885714 111.885714 23.885715 169.257143 0 25.6-2.628571 50.171429-7.885715 73.485714 42.4 41.714286 52.114286 82.971429 52.114286 112.228572 0 75.657143-49.714286 149.485714-136.457143 202.628571-93.142857 56.914286-222.971429 87.085714-375.542857 87.085714z" fill="#25467A" p-id="2494"></path><path d="M48 708.8c0 108.685714 148.114286 241.714286 464 241.714286s464-133.028571 464-241.714286S768.228571 512 512 512 48 600.228571 48 708.8z" fill="#DBDBDB" p-id="2495"></path><path d="M48 708.8c0 108.685714 207.771429 196.8 464 196.8s464-88 464-196.8S768.228571 512 512 512 48 600.228571 48 708.8z" fill="#FFFFFF" p-id="2496"></path><path d="M62.628571 701.028571c0 100.228571 201.142857 181.485714 449.371429 181.485715 248.114286 0 449.371429-81.257143 449.371429-181.485715S760.114286 519.542857 512 519.542857 62.628571 600.8 62.628571 701.028571z" fill="#F8F8F8" p-id="2497"></path><path d="M961.371429 701.028571c0 28.8-16.685714 56.114286-46.285715 80.342858 8.685714-11.771429 13.257143-24.114286 13.257143-36.8 0-80.914286-186.514286-146.4-416.342857-146.4S95.657143 663.771429 95.657143 744.571429c0 12.685714 4.571429 25.142857 13.257143 36.8-29.714286-24.228571-46.4-51.542857-46.4-80.342858 0-100.228571 201.257143-181.485714 449.371428-181.485714s449.485714 81.257143 449.485715 181.485714z" fill="#DBDBDB" p-id="2498"></path><path d="M150.742857 659.428571c0 88.571429 168.457143 160.457143 376.457143 160.457143 207.885714 0 376.457143-71.885714 376.457143-160.457143S735.085714 498.971429 527.2 498.971429 150.742857 570.742857 150.742857 659.428571z" fill="#C7C7C7" p-id="2499"></path><path d="M92.228571 523.2c0-202.628571 109.485714-449.828571 419.771429-449.828571s419.771429 247.2 419.771429 449.828571S743.885714 807.085714 512 807.085714 92.228571 725.714286 92.228571 523.2z" fill="#FBD3E1" p-id="2500"></path><path d="M824.228571 213.485714c33.371429 63.542857 7.085714 177.485714-12.914285 174.857143-23.428571-3.2-66.742857-170.971429-45.257143-205.828571 11.428571-18.514286 41.828571-0.228571 58.171428 30.971428z" fill="#F7AFC8" p-id="2501"></path><path d="M752.685714 145.714286c-74.628571-43.085714-187.885714 49.371429-180.228571 87.771428 8.914286 45.142857 195.2 70.628571 226.514286 15.885715 16.685714-29.142857-9.6-82.514286-46.285715-103.657143z" fill="#F6A4C0" p-id="2502"></path><path d="M798.171429 196.342857c49.714286 67.314286-13.485714 192.8-48.457143 190.971429-41.028571-2.171429-93.028571-182.285714-49.942857-221.257143 22.971429-20.914286 73.942857-2.742857 98.4 30.285714z" fill="#F6A4C0" p-id="2503"></path><path d="M686.971429 159.314286c-79.428571 33.257143-74.514286 179.428571-39.314286 196.571428 41.257143 20.228571 174.4-112.571429 149.828571-170.628571-13.028571-30.971429-71.542857-42.285714-110.514285-25.942857z" fill="#F48FB1" p-id="2504"></path><path d="M931.771429 523.2c0 202.628571-187.885714 283.885714-419.771429 283.885714-184.914286 0-341.942857-51.771429-397.828571-175.428571C190.171429 700.914286 322.857143 752 464 752c231.885714 0 400.914286-84.8 389.371429-308.8-5.828571-111.542857-102.171429-301.6-41.028572-251.428571 85.028571 90.057143 119.428571 217.714286 119.428572 331.428571z" fill="#F9C7D8" p-id="2505"></path><path d="M289.028571 167.314286c0-34.171429 87.885714-75.771429 222.971429-75.771429s222.971429 41.6 222.971429 75.771429-99.771429 64.914286-222.971429 64.914285-222.971429-30.742857-222.971429-64.914285z" fill="#F6A4C0" p-id="2506"></path><path d="M321.714286 160.914286c0-28.914286 75.085714-64.114286 190.285714-64.114286s190.285714 35.2 190.285714 64.114286-85.257143 54.857143-190.285714 54.857143-190.285714-25.942857-190.285714-54.857143z" fill="#FBD3E1" p-id="2507"></path><path d="M333.142857 159.314286c-1.714286-8.228571 12.8-21.714286 38.171429-26.857143 25.371429-5.257143 44 1.485714 45.714285 9.714286s-15.542857 19.542857-38.742857 24.228571-43.428571 1.142857-45.142857-7.085714zM158.857143 313.142857c20.571429-53.714286 55.885714-101.485714 83.771428-90.857143 27.885714 10.628571-5.028571 48.685714-25.6 102.4-20.571429 53.714286-30.285714 110.857143-56.457142 106.514286C133.714286 426.742857 138.285714 366.857143 158.857143 313.142857z" fill="#FFFFFF" p-id="2508"></path><path d="M512 609.828571c-35.314286 0-64-28.685714-64-64 0-7.085714 5.714286-12.8 12.8-12.8s12.8 5.714286 12.8 12.8c0 21.257143 17.142857 38.4 38.4 38.4s38.4-17.142857 38.4-38.4c0-7.085714 5.714286-12.8 12.8-12.8s12.8 5.714286 12.8 12.8c0 35.314286-28.571429 64-64 64zM345.6 443.428571c0 21.257143 17.142857 38.4 38.4 38.4s38.4-17.142857 38.4-38.4-17.142857-38.4-38.4-38.4c-21.142857 0-38.285714 17.142857-38.4 38.4zM601.6 443.428571c0 21.257143 17.142857 38.4 38.4 38.4s38.4-17.142857 38.4-38.4-17.142857-38.4-38.4-38.4-38.285714 17.142857-38.4 38.4z" fill="#25467A" p-id="2509"></path><path d="M332.8 507.428571h-51.2c-14.171429 0-25.6 11.428571-25.6 25.6 0 14.171429 11.428571 25.6 25.6 25.6h51.2c14.171429 0 25.6-11.428571 25.6-25.6 0-14.171429-11.428571-25.6-25.6-25.6z m409.6 0h-51.2c-14.171429 0-25.6 11.428571-25.6 25.6 0 14.171429 11.428571 25.6 25.6 25.6h51.2c14.171429 0 25.6-11.428571 25.6-25.6 0-14.171429-11.428571-25.6-25.6-25.6z" fill="#F06292" p-id="2510"></path></svg>